<svg width="17" height="18" viewBox="0 0 17 18" fill="none" xmlns="http://www.w3.org/2000/svg">
<path fill-rule="evenodd" clip-rule="evenodd" d="M15.5834 9.00001C15.5834 12.912 12.4121 16.0833 8.50008 16.0833C4.58806 16.0833 1.41675 12.912 1.41675 9.00001C1.41675 5.088 4.58806 1.91669 8.50008 1.91669C12.4121 1.91669 15.5834 5.088 15.5834 9.00001ZM11.8242 7.78665C11.742 7.98516 11.5483 8.1146 11.3334 8.1146L5.66673 8.1146C5.37333 8.1146 5.13548 7.87675 5.13548 7.58335C5.13548 7.28995 5.37333 7.0521 5.66673 7.0521H10.0508L9.54108 6.54233C9.33362 6.33487 9.33362 5.9985 9.54108 5.79103C9.74855 5.58357 10.0849 5.58357 10.2924 5.79103L11.709 7.2077C11.861 7.35963 11.9064 7.58813 11.8242 7.78665ZM5.66676 9.88543C5.45189 9.88543 5.25818 10.0149 5.17595 10.2134C5.09373 10.4119 5.13918 10.6404 5.29111 10.7923L6.70778 12.209C6.91525 12.4165 7.25161 12.4165 7.45908 12.209C7.66655 12.0015 7.66655 11.6652 7.45908 11.4577L6.94931 10.9479H11.3334C11.6268 10.9479 11.8647 10.7101 11.8647 10.4167C11.8647 10.1233 11.6268 9.88543 11.3334 9.88543L5.66676 9.88543Z" fill="#7088B1"/>
</svg>
