<svg width="15" height="16" viewBox="0 0 15 16" fill="none" xmlns="http://www.w3.org/2000/svg">
<path fill-rule="evenodd" clip-rule="evenodd" d="M14.5834 8.00001C14.5834 11.912 11.412 15.0833 7.50002 15.0833C3.588 15.0833 0.416687 11.912 0.416687 8.00001C0.416687 4.088 3.588 0.916687 7.50002 0.916687C11.412 0.916687 14.5834 4.088 14.5834 8.00001ZM10.8241 6.78665C10.7419 6.98516 10.5482 7.1146 10.3333 7.1146L4.66667 7.1146C4.37327 7.1146 4.13542 6.87675 4.13542 6.58335C4.13542 6.28995 4.37327 6.0521 4.66667 6.0521H9.05079L8.54102 5.54233C8.33355 5.33487 8.33355 4.9985 8.54102 4.79103C8.74849 4.58357 9.08486 4.58357 9.29232 4.79103L10.709 6.2077C10.8609 6.35963 10.9064 6.58813 10.8241 6.78665ZM4.6667 8.88543C4.45183 8.88543 4.25812 9.01486 4.17589 9.21338C4.09366 9.41189 4.13912 9.64039 4.29105 9.79233L5.70772 11.209C5.91518 11.4165 6.25155 11.4165 6.45902 11.209C6.66649 11.0015 6.66649 10.6652 6.45902 10.4577L5.94925 9.94793H10.3334C10.6268 9.94793 10.8646 9.71008 10.8646 9.41668C10.8646 9.12328 10.6268 8.88543 10.3334 8.88543L4.6667 8.88543Z" fill="white"/>
</svg>
