<svg width="19" height="18" viewBox="0 0 19 18" fill="none" xmlns="http://www.w3.org/2000/svg">
<path d="M17.6429 1.5H1.3576C0.997803 1.50041 0.652857 1.64352 0.398439 1.89794C0.144021 2.15236 0.000908559 2.49731 0.000497068 2.85711V5.63377C0.000455507 5.63709 0 5.64032 0 5.64363C0 5.64694 0.000455507 5.65018 0.000497068 5.65349V13.714C0.000908559 14.0738 0.144021 14.4187 0.398439 14.6731C0.652857 14.9275 0.997803 15.0707 1.3576 15.0711H17.6429C18.0027 15.0707 18.3476 14.9275 18.6021 14.6731C18.8565 14.4187 18.9996 14.0738 19 13.714V2.85711C18.9996 2.49731 18.8565 2.15236 18.6021 1.89794C18.3476 1.64352 18.0027 1.50041 17.6429 1.5ZM10.1783 12.3569H8.8212C8.64123 12.3569 8.46864 12.2854 8.34139 12.1581C8.21414 12.0309 8.14264 11.8583 8.14264 11.6783C8.14264 11.4983 8.21414 11.3257 8.34139 11.1985C8.46864 11.0712 8.64123 10.9997 8.8212 10.9997H10.1783C10.3583 10.9997 10.5309 11.0712 10.6581 11.1985C10.7854 11.3257 10.8569 11.4983 10.8569 11.6783C10.8569 11.8583 10.7854 12.0309 10.6581 12.1581C10.5309 12.2854 10.3583 12.3569 10.1783 12.3569ZM15.6067 12.3569H12.8925C12.7126 12.3569 12.54 12.2854 12.4127 12.1581C12.2855 12.0309 12.214 11.8583 12.214 11.6783C12.214 11.4983 12.2855 11.3257 12.4127 11.1985C12.54 11.0712 12.7126 10.9997 12.8925 10.9997H15.6067C15.7867 10.9997 15.9593 11.0712 16.0865 11.1985C16.2138 11.3257 16.2853 11.4983 16.2853 11.6783C16.2853 11.8583 16.2138 12.0309 16.0865 12.1581C15.9593 12.2854 15.7867 12.3569 15.6067 12.3569ZM1.3576 4.96508V2.85711H17.6429L17.6431 4.96508H1.3576Z" fill="#7088B1"/>
</svg>
