<svg width="16" height="13" viewBox="0 0 16 13" fill="none" xmlns="http://www.w3.org/2000/svg">
<path d="M3 1L13 12" stroke="#A537DC" stroke-linecap="round" stroke-linejoin="round"/>
<path d="M9.68179 8.35012C9.19117 8.79606 8.54349 9.02885 7.88124 8.99728C7.21898 8.96572 6.59639 8.67238 6.1504 8.1818C5.70441 7.69121 5.47156 7.04356 5.50307 6.3813C5.53458 5.71904 5.82786 5.09642 6.31841 4.65039" stroke="#A537DC" stroke-linecap="round" stroke-linejoin="round"/>
<path d="M4.62465 2.78711C2.07657 4.07746 1 6.50001 1 6.50001C1 6.50001 3 10.9995 8 10.9995C9.1715 11.0089 10.3284 10.739 11.3748 10.2124" stroke="#A537DC" stroke-linecap="round" stroke-linejoin="round"/>
<path d="M13.038 9.06921C14.4006 7.84876 14.9999 6.5005 14.9999 6.5005C14.9999 6.5005 12.9999 2.00001 7.99991 2.00001C7.56687 1.9993 7.1345 2.03451 6.70728 2.10527" stroke="#A537DC" stroke-linecap="round" stroke-linejoin="round"/>
<path d="M8.47046 4.04395C9.00182 4.14598 9.48577 4.41754 9.84972 4.8179C10.2137 5.21827 10.438 5.72584 10.4891 6.26449" stroke="#A537DC" stroke-linecap="round" stroke-linejoin="round"/>
</svg>
