<svg width="10" height="11" viewBox="0 0 10 11" fill="none" xmlns="http://www.w3.org/2000/svg">
<path d="M10 6.17333V4.82667L8.80458 4.40167C8.72208 4.11542 8.60792 3.8425 8.46667 3.58708L9.01167 2.44083L8.05958 1.48875L6.91333 2.03333C6.65792 1.89208 6.38458 1.77792 6.09875 1.69542L5.67333 0.5H4.32667L3.90125 1.69542C3.61542 1.77792 3.34208 1.89167 3.08667 2.03333L1.94042 1.48833L0.988333 2.44042L1.53333 3.58708C1.39208 3.8425 1.2775 4.11542 1.19542 4.40167L0 4.82667V6.17333L1.19542 6.59833C1.2775 6.88458 1.39208 7.1575 1.53333 7.41292L0.988333 8.55917L1.94042 9.51167L3.08667 8.96667C3.34208 9.10792 3.61542 9.22208 3.90125 9.30458L4.32667 10.5H5.67333L6.09875 9.30458C6.385 9.22208 6.65792 9.10792 6.91333 8.96667L8.05958 9.51167L9.01167 8.55917L8.46667 7.41292C8.60792 7.1575 8.72208 6.88458 8.80458 6.59833L10 6.17333ZM5 7.16667C4.07958 7.16667 3.33333 6.42042 3.33333 5.5C3.33333 4.57958 4.07958 3.83333 5 3.83333C5.92042 3.83333 6.66667 4.57958 6.66667 5.5C6.66667 6.42042 5.92042 7.16667 5 7.16667Z" fill="#979797"/>
</svg>
