<svg width="25" height="24" viewBox="0 0 25 24" fill="none" xmlns="http://www.w3.org/2000/svg">
<path d="M18.5 8H7L7.5 20H17.5L18.5 8Z" fill="#C41252"/>
<path d="M9.33333 5.53H9.16667C9.25833 5.53 9.33333 5.4535 9.33333 5.36V5.53H15.6667V5.36C15.6667 5.4535 15.7417 5.53 15.8333 5.53H15.6667V7.06H17.1667V5.36C17.1667 4.60988 16.5688 4 15.8333 4H9.16667C8.43125 4 7.83333 4.60988 7.83333 5.36V7.06H9.33333V5.53ZM19.8333 7.06H5.16667C4.79792 7.06 4.5 7.36387 4.5 7.74V8.42C4.5 8.5135 4.575 8.59 4.66667 8.59H5.925L6.43958 19.7038C6.47292 20.4284 7.06042 21 7.77083 21H17.2292C17.9417 21 18.5271 20.4305 18.5604 19.7038L19.075 8.59H20.3333C20.425 8.59 20.5 8.5135 20.5 8.42V7.74C20.5 7.36387 20.2021 7.06 19.8333 7.06ZM17.0688 19.47H7.93125L7.42708 8.59H17.5729L17.0688 19.47Z" fill="#C41252"/>
</svg>
