<svg width="18" height="12" viewBox="0 0 18 12" fill="none" xmlns="http://www.w3.org/2000/svg">
<path d="M17.9483 5.75691C17.9219 5.69766 17.2869 4.2887 15.8743 2.87607C13.993 0.994555 11.6158 0 9 0C6.38415 0 4.007 0.994555 2.12569 2.87607C0.713141 4.2887 0.0780583 5.69766 0.0516905 5.75691C0.0176093 5.83363 0 5.91664 0 6.00059C0 6.08453 0.0176093 6.16755 0.0516905 6.24426C0.0780583 6.30359 0.713216 7.71218 2.12577 9.12459C4.00707 11.0057 6.38415 12 9 12C11.6158 12 13.9929 11.0057 15.8742 9.12459C17.2868 7.71219 17.9219 6.30359 17.9483 6.24427C17.9824 6.16755 18 6.08454 18 6.00059C18 5.91664 17.9824 5.83363 17.9483 5.75691ZM9 3.30066C9.53401 3.30066 10.056 3.45901 10.5 3.75569C10.9441 4.05237 11.2901 4.47405 11.4945 4.96741C11.6988 5.46077 11.7523 6.00365 11.6481 6.5274C11.5439 7.05115 11.2868 7.53225 10.9092 7.90985C10.5316 8.28745 10.0505 8.5446 9.52674 8.64878C9.00299 8.75296 8.46011 8.69949 7.96675 8.49513C7.47339 8.29078 7.05171 7.94471 6.75503 7.5007C6.45835 7.05669 6.29999 6.53467 6.29999 6.00066C6.3008 5.28482 6.58552 4.59854 7.0917 4.09236C7.59787 3.58619 8.28416 3.30147 9 3.30066Z" fill="white"/>
</svg>
